<svg xmlns="http://www.w3.org/2000/svg" viewBox="0 0 125 125"><defs><style></style></defs><title>apps</title><g id="apps"><g id="Calque_5" data-name="Calque 5"><path class="cls-1" d="M51.37,66.18H10.88a7.52,7.52,0,0,0-7.5,7.5V114.2a7.52,7.52,0,0,0,7.5,7.5H51.4a7.51,7.51,0,0,0,7.49-7.5V73.68A7.54,7.54,0,0,0,51.37,66.18Zm0,48.66H10.88a.63.63,0,0,1-.64-.64V73.68a.63.63,0,0,1,.64-.64H51.4a.63.63,0,0,1,.64.64V114.2h0A.64.64,0,0,1,51.37,114.84Z"/><path class="cls-1" d="M51.37,3.7H10.88a7.51,7.51,0,0,0-7.5,7.49V51.71a7.52,7.52,0,0,0,7.5,7.5H51.4a7.51,7.51,0,0,0,7.49-7.5V11.19A7.53,7.53,0,0,0,51.37,3.7Zm0,48.65H10.88a.63.63,0,0,1-.64-.64V11.19a.63.63,0,0,1,.64-.64H51.4a.63.63,0,0,1,.64.64V51.71h0A.65.65,0,0,1,51.37,52.35Z"/><path class="cls-1" d="M113.89,66.18H73.37a7.52,7.52,0,0,0-7.5,7.5V114.2a7.52,7.52,0,0,0,7.5,7.5h40.52a7.51,7.51,0,0,0,7.49-7.5V73.68A7.51,7.51,0,0,0,113.89,66.18Zm0,48.66H73.37a.64.64,0,0,1-.65-.64V73.68a.64.64,0,0,1,.65-.64h40.52a.63.63,0,0,1,.64.64V114.2h0A.64.64,0,0,1,113.89,114.84Z"/><path class="cls-1" d="M113.89,3.7H73.37a7.51,7.51,0,0,0-7.5,7.49V51.71a7.52,7.52,0,0,0,7.5,7.5h40.52a7.51,7.51,0,0,0,7.49-7.5V11.19A7.5,7.5,0,0,0,113.89,3.7Zm0,48.65H73.37a.64.64,0,0,1-.65-.64V11.19a.64.64,0,0,1,.65-.64h40.52a.63.63,0,0,1,.64.64V51.71h0A.65.65,0,0,1,113.89,52.35Z"/></g></g></svg>