<svg id="training" xmlns="http://www.w3.org/2000/svg" viewBox="0 0 125 125"><defs><style>.cls-1{fill:#bf045d;}</style></defs><title>trainings</title><g id="Calque_3" data-name="Calque 3"><path class="cls-1" d="M102.22,92.34h0c0,3.56-5.55,9.34-11.69,12.32-7.25,3.52-17,5.46-27.43,5.46s-20.19-1.94-27.44-5.46c-6.16-3-11.45-8.76-11.45-12.32V71.14l-7-4.8v26c0,7.15,5.19,13.63,14.62,18.22,8.42,4.09,19.53,6.35,31.27,6.35s22.85-2.26,31.27-6.35C103.77,106,109,99.49,109,92.34v-26l-6.75,4.8Z"/><path class="cls-1" d="M122.72,40.38c-1.38-1.33-8.86-5.82-56.37-31.78a5.2,5.2,0,0,0-6.5,0L2.31,40a5.2,5.2,0,0,0,0,8.15L59.85,79.6a5.2,5.2,0,0,0,6.5,0L117.5,51.66V89.45a3.42,3.42,0,0,0,6.84,0V43.29A3.46,3.46,0,0,0,122.72,40.38ZM63.1,73.9,9.25,44.12,63.1,14.33,117,44.12Z"/></g></svg>