<svg xmlns="http://www.w3.org/2000/svg" viewBox="0 0 125 125"><defs><style>.cls-1{fill:#bf045d;}</style></defs><title>wall</title><g id="wall"><g id="Calque_2" data-name="Calque 2"><path class="cls-1" d="M116.82,11.59H8.18A8.18,8.18,0,0,0,0,19.77V88.55a8.18,8.18,0,0,0,8.18,8.18H44.24l12,14.25a8.2,8.2,0,0,0,12.54,0l12-14.26h36.06A8.18,8.18,0,0,0,125,88.57V19.77A8.18,8.18,0,0,0,116.82,11.59Zm.73,77.71H77L62.5,106.47,48.05,89.28H7.45V19H117.58V89.3Z"/><path class="cls-1" d="M64.33,53a3,3,0,0,1-3,3H22.22a3,3,0,0,1-3-3h0a3,3,0,0,1,3-3H61.33a3,3,0,0,1,3,3Z"/><path class="cls-1" d="M64.33,36.57a3,3,0,0,1-3,3H22.22a3,3,0,0,1-3-3h0a3,3,0,0,1,3-3H61.33a3,3,0,0,1,3,3Z"/><path class="cls-1" d="M106.81,68.75a3,3,0,0,1-3,3H22.22a3,3,0,0,1-3-3h0a3,3,0,0,1,3-3h81.59a3,3,0,0,1,3,3Z"/></g></g></svg>