<svg xmlns="http://www.w3.org/2000/svg" viewBox="0 0 125 125"><defs><style>.cls-1{fill:#ffffff;}</style></defs><title>profile</title><g id="profile"><g id="Calque_4" data-name="Calque 4"><path class="cls-1" d="M87.9,60.44c-1.63,2-2.26,3.69-4.34,5.4a39.92,39.92,0,0,1,19.77,34.72c0,8-18.41,14.92-40.67,14.92S22,108.52,22,100.56A39.93,39.93,0,0,1,41.76,65.84c-2.09-1.71-2.72-3.36-4.35-5.4a47.42,47.42,0,0,0-22.17,40.12c0,5.11,2.81,12.24,16.13,17.13,8.32,3.07,19.43,4.75,31.29,4.75s23-1.68,31.29-4.75c13.34-4.92,16.12-12,16.12-17.13A47.4,47.4,0,0,0,87.9,60.44Z"/><path class="cls-1" d="M62.68,65.5C77.63,65.5,89.12,51.06,89.12,34S77.61,2.44,62.68,2.44,36.24,16.89,36.24,34,47.73,65.5,62.68,65.5Zm0-57.18c11.13,0,20.2,11.52,20.2,25.68s-9.07,25.67-20.2,25.67S42.48,48.15,42.48,34,51.52,8.32,62.68,8.32Z"/></g></g></svg>